<svg xmlns="http://www.w3.org/2000/svg" viewBox="0 0 160 110">
  <defs>
    <linearGradient id="fh" x1="0" y1="0" x2="0" y2="1">
      <stop offset="0%" stop-color="#6BD677"/>
      <stop offset="100%" stop-color="#2EA043"/>
    </linearGradient>
  </defs>
  <!-- Cloud -->
  <path d="
    M50 88
    Q36 88, 36 74
    Q36 66, 42 62
    Q36 52, 44 44
    Q52 36, 64 38
    Q66 22, 82 18
    Q96 14, 104 28
    Q110 22, 120 26
    Q134 30, 134 46
    Q146 50, 146 62
    Q146 76, 132 80
    Q130 88, 118 88
    Z
  " fill="url(#fh)"/>
  <!-- Speed lines -->
  <rect x="4" y="54" width="30" height="8" rx="4" fill="url(#fh)"/>
  <rect x="12" y="68" width="24" height="8" rx="4" fill="url(#fh)"/>
  <rect x="18" y="82" width="18" height="8" rx="4" fill="url(#fh)"/>
</svg>
