<svg xmlns="http://www.w3.org/2000/svg" viewBox="0 0 64 64">
<g transform="translate(0,64) scale(0.1,-0.1)" stroke="none">
<path fill="#165DFC" d="M29 611 l-29 -29 0 -262 0 -262 29 -29 29 -29 262 0 262 0 29 29 29 29 0 262 0 262 -29 29 -29 29 -262 0 -262 0 -29 -29z"/>
<path fill="white" d="M150 320 l0 -100 40 0 40 0 0 48 1 47 25 -47 c23 -45 27 -48 65 -48 38 0 41 2 64 53 l25 52 0 -52 0 -53 40 0 40 0 0 100 0 100 -59 0 -59 0 -22 -55 c-12 -30 -25 -55 -29 -55 -3 0 -17 25 -30 55 l-23 55 -59 0 -59 0 0 -100z"/>
</g>
</svg>
