<?xml version="1.0" encoding="UTF-8"?>
<svg xmlns="http://www.w3.org/2000/svg" width="260" height="536" viewBox="0 0 260 536">
  <defs>
    <linearGradient id="phoneFrameGradientDark" x1="0%" y1="0%" x2="100%" y2="100%">
      <stop offset="0%" stop-color="#1E293B" />
      <stop offset="100%" stop-color="#131B2E" />
    </linearGradient>
  </defs>
  <g>
    <g>
      <rect x="0" y="0" width="260" height="536" rx="35" fill="url(#phoneFrameGradientDark)" />
      <rect x="1" y="1" width="258" height="534" rx="34" fill="none" stroke="#FFFFFF" stroke-width="0.5" opacity="0.15" />
      <rect x="7" y="7" width="246" height="522" rx="28" fill="#131B2E" />
      <rect x="105" y="12" width="50" height="16" rx="10" fill="#0C1220" />
      <rect x="-3" y="100" width="6" height="30" rx="3" fill="#0C1220" />
      <rect x="-2.5" y="100.5" width="5" height="29" rx="2.5" fill="none" stroke="#FFFFFF" stroke-width="0.5" opacity="0.1" />
      <rect x="-3" y="140" width="6" height="30" rx="3" fill="#0C1220" />
      <rect x="-2.5" y="140.5" width="5" height="29" rx="2.5" fill="none" stroke="#FFFFFF" stroke-width="0.5" opacity="0.1" />
      <rect x="257" y="120" width="6" height="40" rx="3" fill="#0C1220" />
      <rect x="257.5" y="120.5" width="5" height="39" rx="2.5" fill="none" stroke="#FFFFFF" stroke-width="0.5" opacity="0.1" />
      <rect x="100" y="511" width="60" height="5" rx="2.5" fill="#475569" />
    </g>
    <g>
      <text x="30" y="25" font-family="Arial, sans-serif" font-size="9" font-weight="bold" fill="#E2E8F0">9:41</text>
      <g transform="translate(176, 17) scale(0.8)">
        <rect x="0" y="5" width="2" height="3" rx="0.5" fill="#E2E8F0" />
        <rect x="3" y="3" width="2" height="5" rx="0.5" fill="#E2E8F0" />
        <rect x="6" y="1" width="2" height="7" rx="0.5" fill="#E2E8F0" />
        <rect x="9" y="0" width="2" height="8" rx="0.5" fill="#E2E8F0" />
      </g>
      <g transform="translate(194, 17)">
        <path fill-rule="evenodd" d="M8.778 4.222c-4.296-4.296-11.26-4.296-15.556 0A1 1 0 01-8.192 2.808c5.076-5.077 13.308-5.077 18.384 0a1 1 0 01-1.414 1.414zM5.95 7.05a7 7 0 00-9.9 0 1 1 0 01-1.414-1.414 9 9 0 0112.728 0 1 1 0 01-1.414 1.414zM3.12 9.88a3 3 0 00-4.242 0 1 1 0 01-1.415-1.415 5 5 0 017.072 0 1 1 0 01-1.415 1.415zM0 12a1 1 0 100-2 1 1 0 000 2z" clip-rule="evenodd" fill="#E2E8F0" transform="scale(0.6)"/>
      </g>
      <text x="220" y="23" font-family="Arial, sans-serif" font-size="7" fill="#E2E8F0">100%</text>
      <rect x="205" y="17" width="12" height="6" rx="1" fill="none" stroke="#E2E8F0" stroke-width="0.8" />
      <rect x="217" y="18.5" width="1.5" height="3" rx="0" fill="#E2E8F0" />
      <rect x="206" y="18" width="10" height="4" rx="0.5" fill="#E2E8F0" />
    </g>
  </g>
</svg>
